<svg width="275" height="275" viewBox="0 0 275 275" xmlns="http://www.w3.org/2000/svg"><g fill="none" fill-rule="evenodd"><path d="M274.857 137.819c0 75.768-61.423 137.19-137.191 137.19S.476 213.587.476 137.819C.476 62.05 61.898.628 137.666.628S274.857 62.05 274.857 137.819" fill="#FFF"/><path d="M137.507 15.849c-67.362 0-121.97 54.608-121.97 121.97 0 51.671 32.148 95.805 77.52 113.577-1.066-9.65-2.029-24.452.424-34.989 2.215-9.517 14.302-60.627 14.302-60.627s-3.649-7.305-3.649-18.107c0-16.959 9.831-29.621 22.07-29.621 10.406 0 15.432 7.814 15.432 17.181 0 10.465-6.662 26.111-10.101 40.609-2.873 12.143 6.088 22.044 18.061 22.044 21.68 0 38.343-22.861 38.343-55.855 0-29.203-20.983-49.622-50.948-49.622-34.704 0-55.074 26.031-55.074 52.931 0 10.483 4.039 21.724 9.077 27.835.996 1.208 1.142 2.266.845 3.497-.925 3.855-2.983 12.14-3.386 13.834-.532 2.233-1.769 2.706-4.079 1.631-15.235-7.092-24.758-29.364-24.758-47.252 0-38.475 27.955-73.809 80.589-73.809 42.31 0 75.192 30.149 75.192 70.443 0 42.037-26.504 75.866-63.29 75.866-12.361 0-23.979-6.421-27.956-14.006 0 0-6.116 23.289-7.598 28.994-2.755 10.594-10.188 23.874-15.161 31.975 11.413 3.534 23.541 5.44 36.115 5.44 67.362 0 121.97-54.607 121.97-121.969s-54.608-121.97-121.97-121.97" fill="#bd081c"/></g></svg>