<svg width="31" height="31" viewBox="0 0 31 31" xmlns="http://www.w3.org/2000/svg"><g fill="#022456" fill-rule="evenodd"><path d="M15.5 4.436c3.604 0 4.03.014 5.453.079 1.316.06 2.03.28 2.506.464.63.245 1.08.538 1.552 1.01s.765.922 1.01 1.552c.184.475.404 1.19.464 2.506.065 1.423.08 1.85.08 5.453 0 3.604-.015 4.03-.08 5.453-.06 1.316-.28 2.03-.464 2.506a4.181 4.181 0 0 1-1.01 1.552 4.181 4.181 0 0 1-1.552 1.01c-.475.184-1.19.404-2.506.464-1.422.065-1.85.08-5.453.08-3.604 0-4.03-.015-5.453-.08-1.316-.06-2.03-.28-2.506-.464a4.18 4.18 0 0 1-1.552-1.01 4.181 4.181 0 0 1-1.01-1.552c-.184-.475-.404-1.19-.464-2.506-.065-1.423-.08-1.85-.08-5.453 0-3.604.015-4.03.08-5.453.06-1.316.28-2.03.464-2.506.245-.63.538-1.08 1.01-1.552a4.182 4.182 0 0 1 1.552-1.01c.475-.184 1.19-.404 2.506-.464 1.423-.065 1.85-.08 5.453-.08m0-2.43c-3.665 0-4.125.015-5.564.08-1.437.066-2.418.294-3.276.628a6.615 6.615 0 0 0-2.39 1.556 6.615 6.615 0 0 0-1.557 2.39c-.334.86-.562 1.84-.628 3.277-.065 1.44-.08 1.899-.08 5.564s.015 4.125.08 5.564c.066 1.437.294 2.418.628 3.276.345.888.806 1.64 1.556 2.39a6.615 6.615 0 0 0 2.39 1.557c.86.334 1.84.562 3.277.628 1.44.065 1.899.08 5.564.08s4.125-.015 5.564-.08c1.437-.066 2.418-.294 3.276-.628a6.615 6.615 0 0 0 2.39-1.556 6.615 6.615 0 0 0 1.557-2.39c.334-.86.562-1.84.628-3.277.065-1.44.08-1.899.08-5.564s-.015-4.125-.08-5.564c-.066-1.437-.294-2.418-.628-3.276a6.615 6.615 0 0 0-1.556-2.39 6.615 6.615 0 0 0-2.39-1.557c-.86-.334-1.84-.562-3.277-.628-1.44-.065-1.899-.08-5.564-.08"/><path d="M15.5 8.57a6.93 6.93 0 1 0 0 13.86 6.93 6.93 0 0 0 0-13.86zm0 11.429a4.499 4.499 0 1 1 0-8.998 4.499 4.499 0 0 1 0 8.998zM24.324 8.296a1.62 1.62 0 1 1-3.24 0 1.62 1.62 0 0 1 3.24 0"/></g></svg>