<svg width="1022" height="719" viewBox="0 0 1022 719" xmlns="http://www.w3.org/2000/svg"><path d="M1011.25 155.562s-9.98-70.389-40.608-101.386C931.8 13.493 888.262 13.291 868.296 10.91 725.359.577 510.946.577 510.946.577h-.444s-214.408 0-357.35 10.333c-19.967 2.381-63.489 2.583-102.345 43.266-30.626 30.997-40.592 101.386-40.592 101.386S0 238.222 0 320.881v77.493c0 82.658 10.215 165.317 10.215 165.317s9.966 70.39 40.592 101.387c38.856 40.684 89.896 39.397 112.629 43.661C245.153 716.575 510.725 719 510.725 719s214.634-.323 357.571-10.655c19.966-2.382 63.504-2.583 102.346-43.267 30.628-30.997 40.608-101.387 40.608-101.387s10.2-82.659 10.2-165.317v-77.493c0-82.659-10.2-165.319-10.2-165.319zM405.272 492.281l-.047-287 276 144-275.953 143z" fill="#cd201f" fill-rule="evenodd"/></svg>